<?xml version="1.0" encoding="utf-8"?>
<!-- Generator: Adobe Illustrator 16.0.4, SVG Export Plug-In . SVG Version: 6.00 Build 0)  -->
<!DOCTYPE svg PUBLIC "-//W3C//DTD SVG 1.1//EN" "http://www.w3.org/Graphics/SVG/1.1/DTD/svg11.dtd">
<svg version="1.1" id="Layer_1" xmlns="http://www.w3.org/2000/svg" xmlns:xlink="http://www.w3.org/1999/xlink" x="0px" y="0px"
	 width="512px" height="512px" viewBox="0 0 512 512" enable-background="new 0 0 512 512" xml:space="preserve">
<g>
	<path d="M430.056,321.622l-1.1-1.915l1.034-1.95c2.231-4.211,3.363-8.772,3.363-13.559c0-15.99-13.01-29-29-29s-29,13.01-29,29
		s13.01,29,29,29c1.276,0,2.602-0.093,3.938-0.275l2.725-0.373l1.323,2.411c8.604,15.669,11.216,28.652,6.986,34.729
		c-4.024,5.78-14.78,6.644-20.834,6.644c-29.07,0-68.827-16.894-91.287-27.704c-6.828,4.734-14.141,9.614-21.209,14.157
		c28.455,14.575,75.784,35.547,112.496,35.547c22.893,0,33.784-8.741,38.889-16.073C447.24,368.102,444.707,347.134,430.056,321.622
		z"/>
	<path d="M412.892,214.223c36.675-48.324,33.604-74.373,24.567-87.716c-5.1-7.53-16-16.507-38.969-16.507
		c-48.735,0-115.785,37.352-142.351,53.411l-2.026,1.225l-2.048-1.187c-77.585-44.932-122.745-49.783-138.559-49.783
		c-22.897,0-33.787,8.741-38.891,16.074c-9.892,14.21-7.308,35.267,7.473,60.893l1.142,1.98l-1.126,1.989
		c-2.456,4.338-3.754,9.27-3.754,14.262c0,15.991,13.009,29,29,29s29-13.009,29-29s-13.009-29-29-29
		c-1.033,0-2.115,0.062-3.216,0.182l-2.632,0.289l-1.294-2.31c-9.047-16.15-11.865-29.502-7.536-35.717
		c4.024-5.78,14.781-6.644,20.835-6.644c14.099,0,32.196,3.961,53.789,11.774c18.586,6.723,38.758,15.952,59.956,27.43l5.794,3.138
		l-5.457,3.693c-35.742,24.186-65.979,48.994-95.156,78.073c-12.802,12.951-24.022,25.744-33.327,38.003
		C62.43,346.1,65.502,372.148,74.537,385.491c7.419,10.954,20.487,16.508,38.843,16.508c16.234,0,36.21-4.241,59.373-12.606
		C255.561,359.483,361.043,282.54,412.892,214.223z M92.753,373.155c-8.509-12.567,8.274-50.763,56.815-99.45l2.648-2.656
		l2.821,2.473c17.065,14.957,35.738,29.565,55.53,43.445c7.042-3.857,13.884-7.814,21.073-12.191
		c-21.195-14.374-41.822-30.164-59.955-45.91l-3.433-2.981l3.395-3.025c24.288-21.646,52.142-42.756,80.55-61.049l2.118-1.364
		l2.145,1.321c22.398,13.793,45.016,29.717,65.606,46.181c5.656-5.053,11.099-10.132,16.246-15.159
		c-18.007-14.56-37.308-28.551-57.435-41.632l-5.521-3.588l5.728-3.246C298.604,164.395,358.845,132,398.494,132
		c7.354,0,16.923,1.187,20.753,6.843c5.056,7.464,1.837,28.201-23.875,62.079C352.538,257.36,286.295,303.131,259.803,320.19
		c-15.511,9.987-95.46,59.81-146.295,59.81C106.154,380,96.584,378.812,92.753,373.155z"/>
	<path d="M288.457,395.227C278.749,419.877,266.484,435,256.001,435c-10.235,0-21.865-13.872-31.482-37.349
		c-6.874,3.365-13.389,6.371-20.048,9.248C214.306,430.566,230.91,457,256.001,457c25.825,0,42.699-27.878,52.614-52.769
		C301.989,401.463,295.338,398.491,288.457,395.227z"/>
	<path d="M223.548,116.775C233.255,92.124,245.519,77,256.001,77c10.236,0,21.867,13.872,31.484,37.348
		c6.897-3.377,13.411-6.382,20.045-9.248C297.698,81.434,281.096,55,256.001,55c-25.825,0-42.698,27.878-52.612,52.77
		C209.992,110.528,216.645,113.5,223.548,116.775z"/>
</g>
</svg>
