<?xml version="1.0" encoding="utf-8"?>
<!-- Generator: Adobe Illustrator 16.0.4, SVG Export Plug-In . SVG Version: 6.00 Build 0)  -->
<!DOCTYPE svg PUBLIC "-//W3C//DTD SVG 1.1//EN" "http://www.w3.org/Graphics/SVG/1.1/DTD/svg11.dtd">
<svg version="1.1" id="Layer_1" xmlns="http://www.w3.org/2000/svg" xmlns:xlink="http://www.w3.org/1999/xlink" x="0px" y="0px"
	 width="512px" height="512px" viewBox="0 0 512 512" enable-background="new 0 0 512 512" xml:space="preserve">
<path d="M346.027,326.933c-5.91-5.911-11.624-7.151-15.377-7.151c-4.483,0-8.676,1.723-11.803,4.852
	c-3.671,3.67-5.687,9.029-5.675,15.123c0.016,0.679,0.038,1.315,0.061,1.912c0.14,3.932,0.188,5.256-2.124,7.567
	c-1.591,1.591-4.409,2.54-7.539,2.54c-4.589,0-9.168-2.051-12.893-5.773c-7.617-7.619-6.746-16.917-3.232-20.432
	c1.845-1.845,3.022-2.173,5.416-2.173c0.655,0,1.356,0.024,2.121,0.051l0.108,0.004c0.576,0.02,1.189,0.04,1.931,0.055
	c6.028,0,11.364-2.016,15.022-5.676c3.208-3.203,4.975-7.681,4.848-12.284c-0.145-5.214-2.614-10.365-7.144-14.896l-30.9-30.899
	l30.901-30.9c0.043-0.043,0.086-0.086,0.129-0.128c-0.003,0.341-0.01,0.72-0.02,1.141c-0.158,4.917-0.423,13.148,7.72,21.29
	c5.163,5.164,12.836,8.126,21.051,8.126c9.742,0,19.143-4.034,26.467-11.359c15.179-15.18,13.926-36.826,3.232-47.519
	c-6.886-6.886-13.694-7.769-18.857-7.769c-0.871,0-1.688,0.026-2.423,0.051c-0.403,0.01-0.788,0.017-1.154,0.02
	c0.043-0.043,0.086-0.087,0.131-0.131l35.144-35.144L256,32.256L28.508,259.75L256,487.242l125.169-125.17L346.027,326.933z
	 M332.482,179.024c-4.528,4.528-6.998,9.679-7.143,14.897c-0.128,4.601,1.639,9.078,4.846,12.283
	c3.656,3.659,9.014,5.673,15.117,5.673c0.654-0.013,1.27-0.035,1.851-0.055l0.11-0.004c0.762-0.027,1.461-0.052,2.115-0.052
	c2.384,0,3.559,0.329,5.406,2.175c3.513,3.514,4.383,12.812-3.234,20.43c-3.724,3.723-8.302,5.773-12.892,5.773
	c-3.129,0-5.947-0.95-7.538-2.54c-2.307-2.308-2.26-3.623-2.123-7.531l0.009-0.247c0.019-0.538,0.038-1.106,0.052-1.761
	c0.009-6.045-2.008-11.394-5.676-15.062c-3.129-3.129-7.321-4.853-11.805-4.853c-3.753,0-9.467,1.24-15.375,7.148l-30.9,30.9
	l-30.899-30.898c-0.045-0.045-0.09-0.09-0.133-0.134c0.366,0.002,0.747,0.008,1.124,0.016c5.275,0.173,13.266,0.333,21.312-7.711
	c5.454-5.455,8.407-13.573,8.102-22.272c-0.328-9.297-4.354-18.262-11.336-25.246c-7.324-7.324-16.724-11.357-26.469-11.357
	c-8.217,0-15.89,2.961-21.049,8.124c-8.156,8.156-7.878,16.383-7.713,21.286c0.01,0.426,0.017,0.809,0.019,1.151
	c-0.045-0.044-0.09-0.089-0.136-0.135l-30.901-30.897L256,59.347l98.081,98.08L332.482,179.024z M153.677,161.669l30.9,30.899
	c5.909,5.91,11.626,7.15,15.383,7.15c4.484,0,8.676-1.721,11.802-4.847c5.167-5.169,5.753-11.451,5.618-17.487
	c-0.126-3.816-0.161-4.841,2.117-7.118c1.591-1.59,4.409-2.54,7.539-2.54c4.59,0,9.168,2.05,12.891,5.773
	c7.617,7.618,6.747,16.916,3.234,20.43c-1.949,1.948-3.128,2.162-5.18,2.162c-0.557,0-1.162-0.021-1.835-0.042L236,196.045
	c-0.437-0.009-0.872-0.013-1.304-0.013c-5.195,0-11.176,0.669-16.139,5.633c-3.206,3.206-4.97,7.685-4.841,12.288
	c0.147,5.219,2.618,10.37,7.145,14.896l30.899,30.899l-30.9,30.9c-0.044,0.044-0.087,0.088-0.13,0.13
	c0.002-0.34,0.009-0.718,0.019-1.139c0.16-4.918,0.427-13.148-7.719-21.292c-5.162-5.164-12.836-8.126-21.054-8.126
	c-9.743,0-19.142,4.033-26.466,11.357c-6.984,6.984-11.01,15.951-11.337,25.248c-0.307,8.698,2.647,16.815,8.104,22.27
	c6.884,6.886,13.723,7.769,18.911,7.769c0.844,0,1.64-0.024,2.373-0.048c0.402-0.011,0.786-0.018,1.15-0.021
	c-0.043,0.044-0.087,0.089-0.132,0.134l-30.9,30.898L55.597,259.75L153.677,161.669z M198.12,340.475
	c4.53-4.529,7-9.681,7.144-14.897c0.127-4.6-1.639-9.076-4.845-12.282c-4.971-4.973-10.934-5.644-16.112-5.644
	c-0.44,0-0.88,0.005-1.365,0.016l-0.102,0.003c-0.667,0.022-1.28,0.044-1.854,0.044c-2.092,0-3.213-0.204-5.168-2.158
	c-3.513-3.515-4.383-12.812,3.234-20.431c3.723-3.723,8.301-5.773,12.891-5.773c3.129,0,5.947,0.95,7.539,2.54
	c2.278,2.277,2.243,3.309,2.111,7.164c-0.143,6.944,0.76,12.567,5.629,17.437c3.128,3.128,7.319,4.851,11.802,4.851
	c3.753,0,9.467-1.241,15.376-7.152l30.899-30.897l30.899,30.9c0.044,0.044,0.087,0.087,0.129,0.129
	c-0.364-0.003-0.744-0.009-1.133-0.019c-5.292-0.171-13.28-0.298-21.297,7.718c-5.456,5.455-8.41,13.572-8.104,22.271
	c0.327,9.297,4.353,18.264,11.336,25.249c7.324,7.324,16.724,11.358,26.467,11.358c8.216,0,15.889-2.962,21.052-8.126
	c8.147-8.148,7.879-16.377,7.719-21.285c-0.011-0.425-0.018-0.807-0.021-1.148c0.043,0.043,0.087,0.086,0.132,0.131l21.601,21.6
	L256,460.154l-88.779-88.78L198.12,340.475z"/>
</svg>
