<?xml version="1.0" encoding="utf-8"?>
<!-- Generator: Adobe Illustrator 16.0.4, SVG Export Plug-In . SVG Version: 6.00 Build 0)  -->
<!DOCTYPE svg PUBLIC "-//W3C//DTD SVG 1.1//EN" "http://www.w3.org/Graphics/SVG/1.1/DTD/svg11.dtd">
<svg version="1.1" id="Layer_1" xmlns="http://www.w3.org/2000/svg" xmlns:xlink="http://www.w3.org/1999/xlink" x="0px" y="0px"
	 width="512px" height="512px" viewBox="0 0 512 512" enable-background="new 0 0 512 512" xml:space="preserve">
<g>
	<polygon points="160.099,62.893 60.725,162.263 86.408,187.071 185.781,87.699 	"/>
	<polygon points="193.878,95.726 178.254,111.348 395.098,327.204 407.781,379.668 380.438,407.009 326.895,395.239 
		326.377,394.727 110.13,179.473 94.505,195.097 315.922,415.523 451.275,449.107 415.213,316.072 	"/>
</g>
<g>
	<polygon points="393.223,46.618 278.618,161.225 304.633,187.218 310.422,181.43 297.406,168.413 306.641,159.179 319.656,172.194 
		325.443,166.407 312.43,153.39 321.41,144.411 334.383,157.384 340.17,151.599 327.197,138.623 336.434,129.389 349.406,142.361 
		355.193,136.574 342.221,123.6 393.223,72.599 438.436,117.812 336.82,219.43 349.811,232.417 464.416,117.812 	"/>
	<polygon points="118.778,439.4 73.563,394.188 124.565,343.184 137.541,356.157 143.325,350.37 130.352,337.397 139.586,328.161 
		152.561,341.136 158.348,335.349 145.374,322.374 154.354,313.394 167.372,326.407 173.16,320.62 160.143,307.606 169.377,298.37 
		182.393,311.386 188.182,305.599 162.188,279.582 47.584,394.188 118.775,465.382 233.381,350.774 220.393,337.784 	"/>
</g>
</svg>
